<svg xmlns="http://www.w3.org/2000/svg" xmlns:xlink="http://www.w3.org/1999/xlink" width="107" height="96" viewBox="0 0 107 96">
  <defs>
    <filter id="Ellipse_12607" x="45" y="34" width="62" height="62" filterUnits="userSpaceOnUse">
      <feOffset dy="3" input="SourceAlpha"/>
      <feGaussianBlur stdDeviation="3" result="blur"/>
      <feFlood flood-opacity="0.161"/>
      <feComposite operator="in" in2="blur"/>
      <feComposite in="SourceGraphic"/>
    </filter>
    <filter id="Ellipse_12608" x="0" y="0" width="50" height="50" filterUnits="userSpaceOnUse">
      <feOffset dy="3" input="SourceAlpha"/>
      <feGaussianBlur stdDeviation="3" result="blur-2"/>
      <feFlood flood-opacity="0.161"/>
      <feComposite operator="in" in2="blur-2"/>
      <feComposite in="SourceGraphic"/>
    </filter>
    <clipPath id="clip-path">
      <rect id="Rectangle_411423" data-name="Rectangle 411423" width="65" height="70" transform="translate(-5192 -9893)" fill="#fff" stroke="#707070" stroke-width="1"/>
    </clipPath>
  </defs>
  <g id="Group_1204628" data-name="Group 1204628" transform="translate(5212.943 9907.365)">
    <g transform="matrix(1, 0, 0, 1, -5212.94, -9907.37)" filter="url(#Ellipse_12607)">
      <circle id="Ellipse_12607-2" data-name="Ellipse 12607" cx="22" cy="22" r="22" transform="translate(54 40)" fill="#c6b7e2"/>
    </g>
    <g transform="matrix(1, 0, 0, 1, -5212.94, -9907.37)" filter="url(#Ellipse_12608)">
      <circle id="Ellipse_12608-2" data-name="Ellipse 12608" cx="16" cy="16" r="16" transform="translate(9 6)" fill="#c6b7e2"/>
    </g>
    <g id="Mask_Group_1099335" data-name="Mask Group 1099335" clip-path="url(#clip-path)">
      <g id="priority_14991742" transform="translate(-5194.1 -9892.6)">
        <g id="Group_1204620" data-name="Group 1204620">
          <g id="Group_1204619" data-name="Group 1204619">
            <path id="Path_1275359" data-name="Path 1275359" d="M3.113,9.094V60.416a3.379,3.379,0,0,0,3.379,3.379H53.48a3.379,3.379,0,0,0,3.379-3.379V9.094Z" fill="#f5f8f9"/>
            <path id="Path_1275360" data-name="Path 1275360" d="M51.453,9.094V55.01a3.379,3.379,0,0,1-3.379,3.379H3.113v2.027a3.379,3.379,0,0,0,3.379,3.379H53.48a3.379,3.379,0,0,0,3.379-3.379V9.094Z" fill="#e8edf2"/>
            <g id="Group_1204618" data-name="Group 1204618">
              <circle id="Ellipse_12730" data-name="Ellipse 12730" cx="14.978" cy="14.978" r="14.978" transform="translate(36.129 38.228)" fill="#7fe5cf"/>
              <path id="Path_1275361" data-name="Path 1275361" d="M57.154,39.5a14.981,14.981,0,0,1-17.5,23.359A14.979,14.979,0,1,0,57.154,39.5Z" fill="#cbf4eb"/>
              <path id="Path_1275362" data-name="Path 1275362" d="M49.8,59.431a2.2,2.2,0,0,1-1.563-.647l-5.8-5.8a.734.734,0,0,1,0-1.038l2.088-2.087a.734.734,0,0,1,1.038,0L49.8,54.095l6.854-6.854a.734.734,0,0,1,1.038,0l2.088,2.088a.734.734,0,0,1,0,1.038L51.36,58.784A2.205,2.205,0,0,1,49.8,59.431Z" fill="#fff"/>
              <g id="Group_1204617" data-name="Group 1204617">
                <path id="Path_1275363" data-name="Path 1275363" d="M58.785,48.336l-10.5,10.5a2.206,2.206,0,0,0,3.071-.05l8.417-8.417a.734.734,0,0,0,0-1.038Z" fill="#f5f8f9"/>
              </g>
            </g>
            <path id="Path_1275364" data-name="Path 1275364" d="M53.48,1.014H6.511A3.379,3.379,0,0,0,3.132,4.393V9.229H56.859V4.393A3.379,3.379,0,0,0,53.48,1.014Z" fill="#ffe177"/>
            <path id="Path_1275365" data-name="Path 1275365" d="M53.48,1.014H51.453V3.823A1.352,1.352,0,0,1,50.1,5.174H3.132V9.229H56.859V4.393A3.379,3.379,0,0,0,53.48,1.014Z" fill="#ffd15b"/>
          </g>
        </g>
        <g id="Group_1204627" data-name="Group 1204627">
          <g id="Group_1204621" data-name="Group 1204621">
            <path id="Path_1275366" data-name="Path 1275366" d="M11.11,48.98A2.027,2.027,0,1,1,13.1,51.4" fill="none" stroke="#000" stroke-linecap="round" stroke-linejoin="round" stroke-miterlimit="10" stroke-width="2.027"/>
            <path id="Path_1275367" data-name="Path 1275367" d="M13.1,51.4a2.027,2.027,0,1,1-2.008,2.31,2.054,2.054,0,0,1-.02-.283" fill="none" stroke="#000" stroke-linecap="round" stroke-linejoin="round" stroke-miterlimit="10" stroke-width="2.027"/>
          </g>
          <g id="Group_1204622" data-name="Group 1204622">
            <path id="Path_1275368" data-name="Path 1275368" d="M11.519,15.436h1.733v8.109" fill="none" stroke="#000" stroke-linecap="round" stroke-linejoin="round" stroke-miterlimit="10" stroke-width="2.027"/>
          </g>
          <g id="Group_1204623" data-name="Group 1204623">
            <line id="Line_616" data-name="Line 616" x2="27.272" transform="translate(21.033 16.173)" fill="none" stroke="#000" stroke-linecap="round" stroke-linejoin="round" stroke-miterlimit="10" stroke-width="2.027"/>
            <line id="Line_617" data-name="Line 617" x2="27.272" transform="translate(21.033 22.809)" fill="none" stroke="#000" stroke-linecap="round" stroke-linejoin="round" stroke-miterlimit="10" stroke-width="2.027"/>
          </g>
          <g id="Group_1204624" data-name="Group 1204624">
            <line id="Line_618" data-name="Line 618" x2="12.054" transform="translate(21.033 48.168)" fill="none" stroke="#000" stroke-linecap="round" stroke-linejoin="round" stroke-miterlimit="10" stroke-width="2.027"/>
            <line id="Line_619" data-name="Line 619" x2="10.673" transform="translate(21.033 54.805)" fill="none" stroke="#000" stroke-linecap="round" stroke-linejoin="round" stroke-miterlimit="10" stroke-width="2.027"/>
          </g>
          <g id="Group_1204625" data-name="Group 1204625">
            <line id="Line_620" data-name="Line 620" x2="27.272" transform="translate(21.033 32.099)" fill="none" stroke="#000" stroke-linecap="round" stroke-linejoin="round" stroke-miterlimit="10" stroke-width="2.027"/>
            <line id="Line_621" data-name="Line 621" x2="16.196" transform="translate(21.033 38.735)" fill="none" stroke="#000" stroke-linecap="round" stroke-linejoin="round" stroke-miterlimit="10" stroke-width="2.027"/>
          </g>
          <g id="Group_1204626" data-name="Group 1204626">
            <path id="Path_1275369" data-name="Path 1275369" d="M15.264,39.525s-3.87.049-4.053-.012.294-.384,2.831-4.009a5.12,5.12,0,0,0,.846-1.727l.039-.308a2.035,2.035,0,0,0-4.032-.395" fill="none" stroke="#000" stroke-linecap="round" stroke-linejoin="round" stroke-miterlimit="10" stroke-width="2.027"/>
          </g>
          <path id="Path_1275370" data-name="Path 1275370" d="M49.8,59.431a2.2,2.2,0,0,1-1.563-.647l-5.8-5.8a.734.734,0,0,1,0-1.038l2.088-2.087a.734.734,0,0,1,1.038,0L49.8,54.095l6.854-6.854a.734.734,0,0,1,1.038,0l2.088,2.088a.734.734,0,0,1,0,1.038L51.36,58.784A2.205,2.205,0,0,1,49.8,59.431Z" fill="none" stroke="#000" stroke-linecap="round" stroke-linejoin="round" stroke-miterlimit="10" stroke-width="2.027"/>
          <line id="Line_622" data-name="Line 622" x2="53.727" transform="translate(3.132 9.229)" fill="none" stroke="#000" stroke-linejoin="round" stroke-miterlimit="10" stroke-width="2.027"/>
          <path id="Path_1275371" data-name="Path 1275371" d="M56.859,39.373V4.393A3.379,3.379,0,0,0,53.48,1.014H48.168" fill="none" stroke="#000" stroke-linecap="round" stroke-linejoin="round" stroke-miterlimit="10" stroke-width="2.027"/>
          <path id="Path_1275372" data-name="Path 1275372" d="M43.437,1.014H6.511A3.379,3.379,0,0,0,3.132,4.393l0,27.819" fill="none" stroke="#000" stroke-linecap="round" stroke-linejoin="round" stroke-miterlimit="10" stroke-width="2.027"/>
          <path id="Path_1275373" data-name="Path 1275373" d="M3.126,36.942,3.113,60.416a3.379,3.379,0,0,0,3.379,3.379H40.513" fill="none" stroke="#000" stroke-linecap="round" stroke-linejoin="round" stroke-miterlimit="10" stroke-width="2.027"/>
          <path id="Path_1275374" data-name="Path 1275374" d="M39.058,44.309a14.969,14.969,0,1,0,3.375-3.315" fill="none" stroke="#000" stroke-linecap="round" stroke-linejoin="round" stroke-miterlimit="10" stroke-width="2.027"/>
        </g>
      </g>
    </g>
  </g>
</svg>
