<svg xmlns="http://www.w3.org/2000/svg" xmlns:xlink="http://www.w3.org/1999/xlink" width="107" height="96" viewBox="0 0 107 96">
  <defs>
    <filter id="Ellipse_12607" x="45" y="34" width="62" height="62" filterUnits="userSpaceOnUse">
      <feOffset dy="3" input="SourceAlpha"/>
      <feGaussianBlur stdDeviation="3" result="blur"/>
      <feFlood flood-opacity="0.161"/>
      <feComposite operator="in" in2="blur"/>
      <feComposite in="SourceGraphic"/>
    </filter>
    <filter id="Ellipse_12608" x="0" y="0" width="50" height="50" filterUnits="userSpaceOnUse">
      <feOffset dy="3" input="SourceAlpha"/>
      <feGaussianBlur stdDeviation="3" result="blur-2"/>
      <feFlood flood-opacity="0.161"/>
      <feComposite operator="in" in2="blur-2"/>
      <feComposite in="SourceGraphic"/>
    </filter>
    <clipPath id="clip-path">
      <rect id="Rectangle_411417" data-name="Rectangle 411417" width="70" height="71" transform="translate(810.051 1688.598)" fill="#fff" stroke="#707070" stroke-width="1"/>
    </clipPath>
  </defs>
  <g id="Group_1204607" data-name="Group 1204607" transform="translate(-797 -1683.193)">
    <g transform="matrix(1, 0, 0, 1, 797, 1683.19)" filter="url(#Ellipse_12607)">
      <circle id="Ellipse_12607-2" data-name="Ellipse 12607" cx="22" cy="22" r="22" transform="translate(54 40)" fill="#c6b7e2"/>
    </g>
    <g transform="matrix(1, 0, 0, 1, 797, 1683.19)" filter="url(#Ellipse_12608)">
      <circle id="Ellipse_12608-2" data-name="Ellipse 12608" cx="16" cy="16" r="16" transform="translate(9 6)" fill="#c6b7e2"/>
    </g>
    <g id="Mask_Group_1099331" data-name="Mask Group 1099331" transform="translate(0 7.402)" clip-path="url(#clip-path)">
      <g id="_x34_54_x2C___idea_x2C__innovation_x2C__lightbulb_x2C__technology" transform="translate(810.051 1691.141)">
        <g id="XMLID_891_" transform="translate(0 0)">
          <path id="XMLID_181_" d="M47.914,42.376v5.873H28.051V42.376c-4.034-1.955-8.766-9.984-6.629-17.69a17.035,17.035,0,0,1,16.559-12.4,17.382,17.382,0,0,1,10.641,3.595,0,0,0,0,1,0,0,16.275,16.275,0,0,1-.706,26.492Z" transform="translate(-2.951 -3.473)" fill="#ffda2d"/>
          <path id="XMLID_180_" d="M74.2,28.656A14.8,14.8,0,0,1,67.722,40.83v5.295h-17.9V42.511a16.294,16.294,0,0,0,.708-26.494c10.1-6.2,23.666.743,23.666,12.639Z" transform="translate(-4.86 -3.607)" fill="#f6b900"/>
          <path id="XMLID_179_" d="M26.827,42.506v3.619H8.924V40.83A14.8,14.8,0,0,1,2.449,28.655c0-11.838,13.5-18.872,23.674-12.636A16.285,16.285,0,0,0,26.827,42.506Z" transform="translate(-1.734 -3.606)" fill="#f6b900"/>
          <path id="XMLID_178_" d="M51.524,19.324a16.746,16.746,0,0,0-23.7-2.695.731.731,0,0,1-1.008-.076.678.678,0,0,1,.078-.977,18.265,18.265,0,0,1,22.555-.308,17.774,17.774,0,0,1,3.247,3.258.679.679,0,0,1-.173.965.73.73,0,0,1-1-.167Z" transform="translate(-3.331 -3.4)"/>
          <path id="XMLID_177_" d="M67.671,46.745a.7.7,0,0,1-.715-.693V40.758a.686.686,0,0,1,.3-.564,14.167,14.167,0,0,0,6.175-11.611c0-10.815-11.989-17.656-21.72-12.536a17.185,17.185,0,0,1,5.395,8.568,16.508,16.508,0,0,1,.562,4.319A17.149,17.149,0,0,1,50.487,42.79v3.262a.715.715,0,0,1-1.43,0V42.438a.686.686,0,0,1,.3-.564,15.6,15.6,0,0,0,.677-25.386A.682.682,0,0,1,50.1,15.36a16.472,16.472,0,0,1,8.621-2.418A15.916,15.916,0,0,1,74.861,28.583a15.529,15.529,0,0,1-6.475,12.526v4.943A.7.7,0,0,1,67.671,46.745Z" transform="translate(-4.81 -3.535)"/>
          <path id="XMLID_934_" d="M26.776,46.745a.7.7,0,0,1-.715-.693V42.786a16.909,16.909,0,0,1-5.105-21.932c.235-.432.523-.91.862-1.411a17.528,17.528,0,0,1,3.022-3.394,15.065,15.065,0,0,0-7.015-1.723A14.506,14.506,0,0,0,3.113,28.583,14.168,14.168,0,0,0,9.288,40.194a.686.686,0,0,1,.3.564v5.295a.715.715,0,0,1-1.43,0V41.109A15.528,15.528,0,0,1,1.684,28.583,15.916,15.916,0,0,1,17.825,12.941a16.494,16.494,0,0,1,8.63,2.421.68.68,0,0,1,.065,1.126,16.143,16.143,0,0,0-3.493,3.7,15.528,15.528,0,0,0,2.5,20.367c1.558,1.407,1.963,1.3,1.963,1.883v3.619A.7.7,0,0,1,26.776,46.745Z" transform="translate(-1.684 -3.535)"/>
          <path id="XMLID_175_" d="M6.515,69.649a2.447,2.447,0,1,1,0,4.892,2.447,2.447,0,1,1,0-4.892Z" transform="translate(-1.836 -8.916)" fill="#8bf2cf"/>
          <path id="XMLID_174_" d="M71.013,3.314a2.966,2.966,0,0,1,3.012,2.919,3.014,3.014,0,0,1-6.024,0,2.966,2.966,0,0,1,3.012-2.919Z" transform="translate(-6.06 -2.621)" fill="#8bf2cf"/>
          <path id="XMLID_173_" d="M52.03,57.343H65.8A4.648,4.648,0,0,1,61.1,61.9H56.736a4.648,4.648,0,0,1-4.706-4.561Z" transform="translate(-5.006 -7.749)" fill="#3b4a51"/>
          <path id="XMLID_172_" d="M31.01,60.693H46.287a5.156,5.156,0,0,1-5.22,5.058H36.23a5.159,5.159,0,0,1-5.22-5.058Z" transform="translate(-3.619 -8.067)" fill="#465a61"/>
          <path id="XMLID_171_" d="M25.366,57.343a4.433,4.433,0,0,1-.745,2.455l0,.006a4.75,4.75,0,0,1-3.957,2.1H16.3a4.648,4.648,0,0,1-4.706-4.561Z" transform="translate(-2.338 -7.749)" fill="#3b4a51"/>
          <path id="XMLID_170_" d="M69.123,49.524V56.6H51.374V51.783H49.823V49.524Z" transform="translate(-4.86 -7.007)" fill="#465a61"/>
          <path id="XMLID_169_" d="M25.121,56.6H7.883V49.524h19.31v2.258H25.64V56.6Z" transform="translate(-2.093 -7.007)" fill="#465a61"/>
          <path id="XMLID_168_" d="M26.894,52.019H49.861V59.87H46.015v0H30.739v0H26.894V52.019Z" transform="translate(-3.347 -7.243)" fill="#596c76"/>
          <path id="XMLID_167_" d="M44.75,38.236,40.241,50.711h-3.6L32.781,38.236l5.575,3.093Z" transform="translate(-3.736 -5.935)" fill="#f6b900"/>
          <ellipse id="XMLID_166_" cx="1.242" cy="1.204" rx="1.242" ry="1.204" transform="translate(61.941 58.325)"/>
          <ellipse id="XMLID_165_" cx="1.242" cy="1.204" rx="1.242" ry="1.204" transform="translate(6.934 3.612)"/>
          <path id="XMLID_164_" d="M49.811,61H26.844a.7.7,0,0,1-.715-.693V57.27a.715.715,0,0,1,1.43,0v2.34H49.1V57.27a.715.715,0,0,1,1.43,0V60.3A.7.7,0,0,1,49.811,61Z" transform="translate(-3.297 -7.676)"/>
          <path id="XMLID_163_" d="M48.369,52.639H28.506a.693.693,0,1,1,0-1.385H48.369a.693.693,0,1,1,0,1.385Z" transform="translate(-3.407 -7.171)"/>
          <path id="XMLID_918_" d="M41.017,66.371H36.179a5.851,5.851,0,0,1-5.934-5.751v0a.7.7,0,0,1,.715-.693H46.237a.7.7,0,0,1,.715.693A5.852,5.852,0,0,1,41.017,66.371ZM31.731,61.31a4.471,4.471,0,0,0,4.449,3.675h4.838a4.471,4.471,0,0,0,4.449-3.675Z" transform="translate(-3.568 -7.994)"/>
          <path id="XMLID_160_" d="M39.138,10.05a.7.7,0,0,1-.715-.693V6.16a.715.715,0,0,1,1.43,0v3.2A.7.7,0,0,1,39.138,10.05Z" transform="translate(-4.108 -2.825)"/>
          <path id="XMLID_159_" d="M50.332,13.094A.728.728,0,0,1,49.975,13a.681.681,0,0,1-.261-.946l1.65-2.767a.727.727,0,0,1,.977-.253.681.681,0,0,1,.261.946l-1.65,2.767a.719.719,0,0,1-.62.346Z" transform="translate(-4.847 -3.155)"/>
          <path id="XMLID_158_" d="M27.827,13.094a.719.719,0,0,1-.62-.346l-1.65-2.767a.681.681,0,0,1,.261-.946.727.727,0,0,1,.977.253l1.65,2.767a.681.681,0,0,1-.261.946.728.728,0,0,1-.357.093Z" transform="translate(-3.253 -3.155)"/>
          <path id="XMLID_157_" d="M40.19,51.332a.733.733,0,0,1-.236-.039.687.687,0,0,1-.438-.883l3.927-10.864-4.817,2.331a.735.735,0,0,1-.674-.019l-4.022-2.231L37.272,50.44a.689.689,0,0,1-.479.862.719.719,0,0,1-.89-.465L32.046,38.363a.68.68,0,0,1,.24-.741.733.733,0,0,1,.8-.059l5.243,2.909,6.051-2.928a.733.733,0,0,1,.792.1.679.679,0,0,1,.2.749L40.865,50.868a.715.715,0,0,1-.675.464Z" transform="translate(-3.685 -5.863)"/>
          <path id="XMLID_156_" d="M61.385,45.567a.729.729,0,0,1-.357-.093l-2.856-1.6a.681.681,0,0,1-.261-.946.728.728,0,0,1,.977-.253l2.856,1.6a.681.681,0,0,1,.261.946A.719.719,0,0,1,61.385,45.567Z" transform="translate(-5.388 -6.348)"/>
          <path id="XMLID_155_" d="M64.827,32.774h-3.3a.693.693,0,1,1,0-1.385h3.3a.693.693,0,1,1,0,1.385Z" transform="translate(-5.586 -5.285)"/>
          <path id="XMLID_154_" d="M58.53,21.413a.719.719,0,0,1-.619-.346.681.681,0,0,1,.261-.946l2.856-1.6a.727.727,0,0,1,.977.253.681.681,0,0,1-.261.946l-2.856,1.6a.729.729,0,0,1-.357.093Z" transform="translate(-5.388 -4.055)"/>
          <path id="XMLID_153_" d="M51.433,56.1a.7.7,0,0,1-.715-.693V52.086a.715.715,0,0,1,1.43,0v3.322A.7.7,0,0,1,51.433,56.1Z" transform="translate(-4.919 -7.184)"/>
          <path id="XMLID_152_" d="M51.944,57.819h-.51a.7.7,0,0,1-.715-.693v-1.37a.715.715,0,0,1,1.43,0v.706a.7.7,0,0,1,.51.664.7.7,0,0,1-.715.693Z" transform="translate(-4.919 -7.532)"/>
          <path id="XMLID_151_" d="M69.072,57.221H65.605a.693.693,0,1,1,0-1.385h2.752V50.145H50.487v.873h.836a.7.7,0,0,1,.715.693v.126a.7.7,0,0,1-.715.693.728.728,0,0,1-.411-.126h-1.14a.7.7,0,0,1-.715-.693V49.452a.7.7,0,0,1,.715-.693h19.3a.7.7,0,0,1,.715.693v7.076A.7.7,0,0,1,69.072,57.221Z" transform="translate(-4.81 -6.934)"/>
          <path id="XMLID_905_" d="M61.045,62.524H56.686a5.345,5.345,0,0,1-5.421-5.253.7.7,0,0,1,.715-.693H65.751a.7.7,0,0,1,.715.693,5.345,5.345,0,0,1-5.421,5.253Zm-8.286-4.561a3.966,3.966,0,0,0,3.927,3.175h4.359a3.966,3.966,0,0,0,3.927-3.175Z" transform="translate(-4.956 -7.676)"/>
          <path id="XMLID_148_" d="M19.547,21.413a.728.728,0,0,1-.357-.093l-2.858-1.6a.681.681,0,0,1-.261-.946.727.727,0,0,1,.977-.253l2.858,1.6a.681.681,0,0,1,.261.946.719.719,0,0,1-.62.346Z" transform="translate(-2.627 -4.055)"/>
          <path id="XMLID_147_" d="M16.518,32.774h-3.3a.693.693,0,1,1,0-1.385h3.3a.693.693,0,1,1,0,1.385Z" transform="translate(-2.397 -5.285)"/>
          <path id="XMLID_146_" d="M16.691,45.567a.719.719,0,0,1-.62-.346.681.681,0,0,1,.262-.946l2.858-1.6a.727.727,0,0,1,.976.254.681.681,0,0,1-.262.946l-2.858,1.6a.729.729,0,0,1-.357.093Z" transform="translate(-2.627 -6.348)"/>
          <path id="XMLID_145_" d="M11.3,57.221H7.832a.7.7,0,0,1-.715-.693V49.452a.7.7,0,0,1,.715-.693h19.3a.71.71,0,0,1,.722.693V51.71a.7.7,0,0,1-.715.693H26.3v3.056a.715.715,0,0,1-1.43,0V51.71a.7.7,0,0,1,.715-.693h.838v-.873H8.547v5.691H11.3a.693.693,0,1,1,0,1.385Z" transform="translate(-2.042 -6.934)"/>
          <path id="XMLID_144_" d="M26.807,57.851h-.519a.7.7,0,0,1-.715-.693.7.7,0,0,1,.519-.666v-.4a.715.715,0,0,1,1.43,0v1.069A.7.7,0,0,1,26.807,57.851Z" transform="translate(-3.26 -7.564)"/>
          <path id="XMLID_143_" d="M20.609,62.524h-4.36a5.345,5.345,0,0,1-5.421-5.253.715.715,0,0,1,1.43,0,3.936,3.936,0,0,0,3.991,3.868h4.36a4.016,4.016,0,0,0,3.356-1.783c.01-.014.02-.029.03-.042a.733.733,0,0,1,1-.138.676.676,0,0,1,.156.948A5.452,5.452,0,0,1,20.609,62.524Z" transform="translate(-2.287 -7.676)"/>
          <path id="XMLID_142_" d="M24.57,60.418a.728.728,0,0,1-.385-.11.68.68,0,0,1-.216-.957,3.794,3.794,0,0,0,.567-1.388H11.542a.693.693,0,1,1,0-1.385H25.315a.7.7,0,0,1,.715.693,5.114,5.114,0,0,1-.858,2.829A.721.721,0,0,1,24.57,60.418Z" transform="translate(-2.287 -7.676)"/>
          <path id="XMLID_895_" d="M70.962,9.772A3.675,3.675,0,0,1,67.235,6.16a3.729,3.729,0,0,1,7.454,0A3.675,3.675,0,0,1,70.962,9.772Zm0-5.838a2.265,2.265,0,0,0-2.3,2.226,2.3,2.3,0,0,0,4.595,0A2.265,2.265,0,0,0,70.962,3.934Z" transform="translate(-6.009 -2.548)"/>
          <path id="XMLID_892_" d="M6.465,75.161a3.14,3.14,0,1,1,0-6.277,3.14,3.14,0,1,1,0,6.277Zm0-4.892a1.754,1.754,0,1,0,1.81,1.754A1.784,1.784,0,0,0,6.465,70.269Z" transform="translate(-1.785 -8.844)"/>
        </g>
      </g>
    </g>
    <g id="Rectangle_411418" data-name="Rectangle 411418" transform="translate(858.051 1723)" fill="#fff" stroke="#707070" stroke-width="1">
      <rect width="4" height="1" stroke="none"/>
      <rect x="0.5" y="0.5" width="3" fill="none"/>
    </g>
  </g>
</svg>
